<svg width="660" height="260" viewBox="0 0 660 260" fill="none" xmlns="http://www.w3.org/2000/svg">
  <style>
    @keyframes float {
      0%, 100% {
        transform: translateY(0);
      }
      50% {
        transform: translateY(-10px);
      }
    }

    .floater {
      animation: float 4s ease-in-out infinite;
    }

    .floater:nth-of-type(1) {
      animation-delay: 0s;
    }

    .floater:nth-of-type(2) {
      animation-delay: 0.5s;
    }

    .floater:nth-of-type(3) {
      animation-delay: 1s;
    }

    .floater:nth-of-type(4) {
      animation-delay: 1.5s;
    }

    .floater:nth-of-type(5) {
      animation-delay: 2s;
    }

    .floater:nth-of-type(6) {
      animation-delay: 2.5s;
    }

    .floater:nth-of-type(7) {
      animation-delay: 3s;
    }
  </style>
  <g clip-path="url(#clip0_1_2)">
<g clip-path="url(#clip1_1_2)">
<path d="M532.282 109.071L557.387 110.284L532.282 111.261V109.071Z" fill="#A6283C"/>
<mask id="mask0_1_2" style="mask-type:luminance" maskUnits="userSpaceOnUse" x="532" y="109" width="26" height="3">
<path d="M532.282 109.071L557.387 110.284L532.282 111.261V109.071Z" fill="white"/>
</mask>
<g mask="url(#mask0_1_2)">
<path d="M534.525 108.087H534V112.314H534.525V108.087Z" fill="#F4F5F6"/>
</g>
<mask id="mask1_1_2" style="mask-type:luminance" maskUnits="userSpaceOnUse" x="532" y="109" width="26" height="3">
<path d="M532.282 109.071L557.387 110.284L532.282 111.261V109.071Z" fill="white"/>
</mask>
<g mask="url(#mask1_1_2)">
<path d="M557.723 110.465V109.936H531.461V110.465H557.723Z" fill="#F4F5F6"/>
</g>
<path d="M532.074 146.306V108.263" stroke="#663921" stroke-width="2" stroke-linecap="square"/>
<path d="M532.074 108.791C532.558 108.791 532.95 108.397 532.95 107.911C532.95 107.424 532.558 107.03 532.074 107.03C531.591 107.03 531.199 107.424 531.199 107.911C531.199 108.397 531.591 108.791 532.074 108.791Z" fill="#663921"/>
<path d="M468.738 43.6341L461.509 70.5217V89.3569L455.559 98.1196V156.199L424.92 173.268V184.292L426.055 185.996V242.895H642.472V184.292L643.45 183.077V173.268L608.163 156.199V134.298L605.09 117.731L601.879 134.298V146.306H598.336V140.581H597.545V141.941H593.278V140.581H592.4V146.306H587.613V140.581H586.852V141.941H582.596V140.581H581.746V146.306H576.962V140.581H576.142V141.941H571.74V140.581H570.917V146.306H565.814V140.581H565.064V141.941H561V140.581H560.243V146.306H555.05V140.581H554.284V141.941H550.297V140.581H549.64V146.306H544.125V140.581L543.475 141.941H539.291V140.581H538.546V146.306H533.316V140.581H532.612V141.941H528.868V140.581H528.057V146.306H522.425V140.581H521.714V141.941H518.11V140.581H517.438V146.306H511.69V140.581H510.989V141.941H507.574V140.581H506.869V146.306H501.415V140.581H500.655V141.941H496.383V140.581H495.532V146.306H490.133V140.581H489.403V141.941H485.161V140.581H484.359V146.306H480.989L480.271 98.1196L475.55 89.3569V70.5217L468.738 43.6341Z" fill="#8E5538"/>
<path d="M603.615 136.641V139.511H606.48V136.641C606.48 135.574 606.003 135.041 605.047 135.041C604.092 135.041 603.615 135.574 603.615 136.641Z" fill="#663921"/>
<path d="M466.42 136.81V139.68H469.285V136.81C469.285 135.743 468.807 135.21 467.852 135.21C466.897 135.21 466.42 135.743 466.42 136.81Z" fill="#663921"/>
<path d="M468.831 32.3781V42.8475L461.472 69.9658H460.732L461.286 70.5474V89.3153L455.138 98.1148H480.592L475.876 89.3153V70.5474L476.434 69.9658H475.667L469.071 42.8475L468.831 32.3781Z" fill="#94B07C"/>
<path d="M605.081 111.645L604.85 117.745L601.611 134.279H608.481L605.364 117.745L605.081 111.645Z" fill="#94B07C"/>
<path d="M467.789 111.609L467.558 117.709L464.319 134.243H471.188L468.071 117.709L467.789 111.609Z" fill="#94B07C"/>
<path d="M509.839 227.149H508.438V231.023H509.839V227.149Z" fill="#663921"/>
<path d="M508.088 227.149H506.338V231.023H508.088V227.149Z" fill="#663921"/>
<path d="M505.987 227.149H504.587V231.023H505.987V227.149Z" fill="#663921"/>
<path d="M509.839 231.376H508.438V233.489H509.839V231.376Z" fill="#663921"/>
<path d="M508.088 231.376H506.338V233.489H508.088V231.376Z" fill="#663921"/>
<path d="M505.987 231.376H504.587V233.489H505.987V231.376Z" fill="#663921"/>
<path d="M499.334 227.149H497.934V231.023H499.334V227.149Z" fill="#663921"/>
<path d="M497.584 227.149H495.833V231.023H497.584V227.149Z" fill="#663921"/>
<path d="M495.483 227.149H494.082V231.023H495.483V227.149Z" fill="#663921"/>
<path d="M499.334 231.376H497.934V233.489H499.334V231.376Z" fill="#663921"/>
<path d="M497.584 231.376H495.833V233.489H497.584V231.376Z" fill="#663921"/>
<path d="M495.483 231.376H494.082V233.489H495.483V231.376Z" fill="#663921"/>
<path d="M488.83 227.149H487.429V231.023H488.83V227.149Z" fill="#663921"/>
<path d="M487.079 227.149H485.328V231.023H487.079V227.149Z" fill="#663921"/>
<path d="M484.978 227.149H483.577V231.023H484.978V227.149Z" fill="#663921"/>
<path d="M488.83 231.376H487.429V233.489H488.83V231.376Z" fill="#663921"/>
<path d="M487.079 231.376H485.328V233.489H487.079V231.376Z" fill="#663921"/>
<path d="M484.978 231.376H483.577V233.489H484.978V231.376Z" fill="#663921"/>
<path d="M478.325 227.149H476.924V231.023H478.325V227.149Z" fill="#663921"/>
<path d="M476.574 227.149H474.823V231.023H476.574V227.149Z" fill="#663921"/>
<path d="M474.473 227.149H473.073V231.023H474.473V227.149Z" fill="#663921"/>
<path d="M478.325 231.376H476.924V233.489H478.325V231.376Z" fill="#663921"/>
<path d="M476.574 231.376H474.823V233.489H476.574V231.376Z" fill="#663921"/>
<path d="M474.473 231.376H473.073V233.489H474.473V231.376Z" fill="#663921"/>
<path d="M467.82 227.149H466.42V231.023H467.82V227.149Z" fill="#663921"/>
<path d="M466.069 227.149H464.319V231.023H466.069V227.149Z" fill="#663921"/>
<path d="M463.968 227.149H462.568V231.023H463.968V227.149Z" fill="#663921"/>
<path d="M467.82 231.376H466.42V233.489H467.82V231.376Z" fill="#663921"/>
<path d="M466.069 231.376H464.319V233.489H466.069V231.376Z" fill="#663921"/>
<path d="M463.968 231.376H462.568V233.489H463.968V231.376Z" fill="#663921"/>
<path d="M602.981 227.149H601.58V231.023H602.981V227.149Z" fill="#663921"/>
<path d="M601.23 227.149H599.479V231.023H601.23V227.149Z" fill="#663921"/>
<path d="M599.129 227.149H597.729V231.023H599.129V227.149Z" fill="#663921"/>
<path d="M602.981 231.376H601.58V233.489H602.981V231.376Z" fill="#663921"/>
<path d="M601.23 231.376H599.479V233.489H601.23V231.376Z" fill="#663921"/>
<path d="M599.129 231.376H597.729V233.489H599.129V231.376Z" fill="#663921"/>
<path d="M592.476 227.149H591.076V231.023H592.476V227.149Z" fill="#663921"/>
<path d="M590.726 227.149H588.975V231.023H590.726V227.149Z" fill="#663921"/>
<path d="M588.625 227.149H587.224V231.023H588.625V227.149Z" fill="#663921"/>
<path d="M592.476 231.376H591.076V233.489H592.476V231.376Z" fill="#663921"/>
<path d="M590.726 231.376H588.975V233.489H590.726V231.376Z" fill="#663921"/>
<path d="M588.625 231.376H587.224V233.489H588.625V231.376Z" fill="#663921"/>
<path d="M581.972 227.149H580.571V231.023H581.972V227.149Z" fill="#663921"/>
<path d="M580.221 227.149H578.47V231.023H580.221V227.149Z" fill="#663921"/>
<path d="M578.12 227.149H576.719V231.023H578.12V227.149Z" fill="#663921"/>
<path d="M581.972 231.376H580.571V233.489H581.972V231.376Z" fill="#663921"/>
<path d="M580.221 231.376H578.47V233.489H580.221V231.376Z" fill="#663921"/>
<path d="M578.12 231.376H576.719V233.489H578.12V231.376Z" fill="#663921"/>
<path d="M571.467 227.149H570.066V231.023H571.467V227.149Z" fill="#663921"/>
<path d="M569.716 227.149H567.965V231.023H569.716V227.149Z" fill="#663921"/>
<path d="M567.615 227.149H566.214V231.023H567.615V227.149Z" fill="#663921"/>
<path d="M571.467 231.376H570.066V233.489H571.467V231.376Z" fill="#663921"/>
<path d="M569.716 231.376H567.965V233.489H569.716V231.376Z" fill="#663921"/>
<path d="M567.615 231.376H566.214V233.489H567.615V231.376Z" fill="#663921"/>
<path d="M560.962 227.149H559.561V231.023H560.962V227.149Z" fill="#663921"/>
<path d="M559.211 227.149H557.461V231.023H559.211V227.149Z" fill="#663921"/>
<path d="M557.11 227.149H555.71V231.023H557.11V227.149Z" fill="#663921"/>
<path d="M560.962 231.376H559.561V233.489H560.962V231.376Z" fill="#663921"/>
<path d="M559.211 231.376H557.461V233.489H559.211V231.376Z" fill="#663921"/>
<path d="M557.11 231.376H555.71V233.489H557.11V231.376Z" fill="#663921"/>
<path d="M465.019 214.115H462.568V217.99H465.019V214.115Z" fill="#663921"/>
<path d="M465.019 218.342H462.568V220.104H465.019V218.342Z" fill="#663921"/>
<path d="M467.82 218.342H465.369V220.104H467.82V218.342Z" fill="#663921"/>
<path d="M467.82 214.115H465.369V217.99H467.82V214.115Z" fill="#663921"/>
<path d="M475.524 214.115H473.073V217.99H475.524V214.115Z" fill="#663921"/>
<path d="M475.524 218.342H473.073V220.104H475.524V218.342Z" fill="#663921"/>
<path d="M478.325 218.342H475.874V220.104H478.325V218.342Z" fill="#663921"/>
<path d="M478.325 214.115H475.874V217.99H478.325V214.115Z" fill="#663921"/>
<path d="M486.028 214.115H483.577V217.99H486.028V214.115Z" fill="#663921"/>
<path d="M486.028 218.342H483.577V220.104H486.028V218.342Z" fill="#663921"/>
<path d="M488.83 218.342H486.379V220.104H488.83V218.342Z" fill="#663921"/>
<path d="M488.83 214.115H486.379V217.99H488.83V214.115Z" fill="#663921"/>
<path d="M496.533 214.115H494.082V217.99H496.533V214.115Z" fill="#663921"/>
<path d="M496.533 218.342H494.082V220.104H496.533V218.342Z" fill="#663921"/>
<path d="M499.334 218.342H496.883V220.104H499.334V218.342Z" fill="#663921"/>
<path d="M499.334 214.115H496.883V217.99H499.334V214.115Z" fill="#663921"/>
<path d="M507.038 214.115H504.587V217.99H507.038V214.115Z" fill="#663921"/>
<path d="M507.038 218.342H504.587V220.104H507.038V218.342Z" fill="#663921"/>
<path d="M509.839 218.342H507.388V220.104H509.839V218.342Z" fill="#663921"/>
<path d="M509.839 214.115H507.388V217.99H509.839V214.115Z" fill="#663921"/>
<path d="M558.161 214.115H555.71V217.99H558.161V214.115Z" fill="#663921"/>
<path d="M558.161 218.342H555.71V220.104H558.161V218.342Z" fill="#663921"/>
<path d="M560.962 218.342H558.511V220.104H560.962V218.342Z" fill="#663921"/>
<path d="M560.962 214.115H558.511V217.99H560.962V214.115Z" fill="#663921"/>
<path d="M568.666 214.115H566.214V217.99H568.666V214.115Z" fill="#663921"/>
<path d="M568.666 218.342H566.214V220.104H568.666V218.342Z" fill="#663921"/>
<path d="M571.467 218.342H569.016V220.104H571.467V218.342Z" fill="#663921"/>
<path d="M571.467 214.115H569.016V217.99H571.467V214.115Z" fill="#663921"/>
<path d="M579.17 214.115H576.719V217.99H579.17V214.115Z" fill="#663921"/>
<path d="M579.17 218.342H576.719V220.104H579.17V218.342Z" fill="#663921"/>
<path d="M581.972 218.342H579.521V220.104H581.972V218.342Z" fill="#663921"/>
<path d="M581.972 214.115H579.521V217.99H581.972V214.115Z" fill="#663921"/>
<path d="M589.675 214.115H587.224V217.99H589.675V214.115Z" fill="#663921"/>
<path d="M589.675 218.342H587.224V220.104H589.675V218.342Z" fill="#663921"/>
<path d="M592.476 218.342H590.025V220.104H592.476V218.342Z" fill="#663921"/>
<path d="M592.476 214.115H590.025V217.99H592.476V214.115Z" fill="#663921"/>
<path d="M600.18 214.115H597.729V217.99H600.18V214.115Z" fill="#663921"/>
<path d="M600.18 218.342H597.729V220.104H600.18V218.342Z" fill="#663921"/>
<path d="M602.981 218.342H600.53V220.104H602.981V218.342Z" fill="#663921"/>
<path d="M602.981 214.115H600.53V217.99H602.981V214.115Z" fill="#663921"/>
<path d="M449.262 192.98H446.11V196.15H449.262V192.98Z" fill="#663921"/>
<path d="M445.76 192.98H442.609V196.15H445.76V192.98Z" fill="#663921"/>
<path d="M442.259 192.98H439.107V196.15H442.259V192.98Z" fill="#663921"/>
<path d="M438.757 192.98H435.606V196.15H438.757V192.98Z" fill="#663921"/>
<path d="M449.262 196.503H446.11V199.673H449.262V196.503Z" fill="#663921"/>
<path d="M445.76 196.503H442.609V199.673H445.76V196.503Z" fill="#663921"/>
<path d="M442.259 196.503H439.107V199.673H442.259V196.503Z" fill="#663921"/>
<path d="M438.757 196.503H435.606V199.673H438.757V196.503Z" fill="#663921"/>
<path d="M449.262 200.025H446.11V203.195H449.262V200.025Z" fill="#663921"/>
<path d="M445.76 200.025H442.609V203.195H445.76V200.025Z" fill="#663921"/>
<path d="M442.259 200.025H439.107V203.195H442.259V200.025Z" fill="#663921"/>
<path d="M438.757 200.025H435.606V203.195H438.757V200.025Z" fill="#663921"/>
<path d="M449.262 203.548H446.11V206.718H449.262V203.548Z" fill="#663921"/>
<path d="M445.76 203.548H442.609V206.718H445.76V203.548Z" fill="#663921"/>
<path d="M442.259 203.548H439.107V206.718H442.259V203.548Z" fill="#663921"/>
<path d="M438.757 203.548H435.606V206.718H438.757V203.548Z" fill="#663921"/>
<path d="M631.344 192.98H628.192V196.15H631.344V192.98Z" fill="#663921"/>
<path d="M627.842 192.98H624.691V196.15H627.842V192.98Z" fill="#663921"/>
<path d="M624.341 192.98H621.189V196.15H624.341V192.98Z" fill="#663921"/>
<path d="M620.839 192.98H617.688V196.15H620.839V192.98Z" fill="#663921"/>
<path d="M631.344 196.503H628.192V199.673H631.344V196.503Z" fill="#663921"/>
<path d="M627.842 196.503H624.691V199.673H627.842V196.503Z" fill="#663921"/>
<path d="M624.341 196.503H621.189V199.673H624.341V196.503Z" fill="#663921"/>
<path d="M620.839 196.503H617.688V199.673H620.839V196.503Z" fill="#663921"/>
<path d="M631.344 200.025H628.192V203.195H631.344V200.025Z" fill="#663921"/>
<path d="M627.842 200.025H624.691V203.195H627.842V200.025Z" fill="#663921"/>
<path d="M624.341 200.025H621.189V203.195H624.341V200.025Z" fill="#663921"/>
<path d="M620.839 200.025H617.688V203.195H620.839V200.025Z" fill="#663921"/>
<path d="M631.344 203.548H628.192V206.718H631.344V203.548Z" fill="#663921"/>
<path d="M627.842 203.548H624.691V206.718H627.842V203.548Z" fill="#663921"/>
<path d="M624.341 203.548H621.189V206.718H624.341V203.548Z" fill="#663921"/>
<path d="M620.839 203.548H617.688V206.718H620.839V203.548Z" fill="#663921"/>
<path d="M454.864 195.798H452.763V198.968H454.864V195.798Z" fill="#663921"/>
<path d="M454.864 195.798H452.763V198.968H454.864V195.798Z" fill="#663921"/>
<path d="M457.315 195.798H455.215V198.968H457.315V195.798Z" fill="#663921"/>
<path d="M459.767 195.798H457.666V198.968H459.767V195.798Z" fill="#663921"/>
<path d="M454.864 199.321H452.763V202.491H454.864V199.321Z" fill="#663921"/>
<path d="M457.315 199.321H455.215V202.491H457.315V199.321Z" fill="#663921"/>
<path d="M459.767 199.321H457.666V202.491H459.767V199.321Z" fill="#663921"/>
<path d="M454.864 202.843H452.763V206.013H454.864V202.843Z" fill="#663921"/>
<path d="M457.315 202.843H455.215V206.013H457.315V202.843Z" fill="#663921"/>
<path d="M459.767 202.843H457.666V206.013H459.767V202.843Z" fill="#663921"/>
<path d="M467.12 195.798H465.019V198.968H467.12V195.798Z" fill="#663921"/>
<path d="M469.571 195.798H467.47V198.968H469.571V195.798Z" fill="#663921"/>
<path d="M472.022 195.798H469.921V198.968H472.022V195.798Z" fill="#663921"/>
<path d="M467.12 199.321H465.019V202.491H467.12V199.321Z" fill="#663921"/>
<path d="M469.571 199.321H467.47V202.491H469.571V199.321Z" fill="#663921"/>
<path d="M472.022 199.321H469.921V202.491H472.022V199.321Z" fill="#663921"/>
<path d="M467.12 202.843H465.019V206.013H467.12V202.843Z" fill="#663921"/>
<path d="M469.571 202.843H467.47V206.013H469.571V202.843Z" fill="#663921"/>
<path d="M472.022 202.843H469.921V206.013H472.022V202.843Z" fill="#663921"/>
<path d="M479.375 195.798H477.274V198.968H479.375V195.798Z" fill="#663921"/>
<path d="M481.827 195.798H479.726V198.968H481.827V195.798Z" fill="#663921"/>
<path d="M484.278 195.798H482.177V198.968H484.278V195.798Z" fill="#663921"/>
<path d="M479.375 199.321H477.274V202.491H479.375V199.321Z" fill="#663921"/>
<path d="M481.827 199.321H479.726V202.491H481.827V199.321Z" fill="#663921"/>
<path d="M484.278 199.321H482.177V202.491H484.278V199.321Z" fill="#663921"/>
<path d="M479.375 202.843H477.274V206.013H479.375V202.843Z" fill="#663921"/>
<path d="M481.827 202.843H479.726V206.013H481.827V202.843Z" fill="#663921"/>
<path d="M484.278 202.843H482.177V206.013H484.278V202.843Z" fill="#663921"/>
<path d="M491.631 195.798H489.53V198.968H491.631V195.798Z" fill="#663921"/>
<path d="M494.082 195.798H491.981V198.968H494.082V195.798Z" fill="#663921"/>
<path d="M496.533 195.798H494.432V198.968H496.533V195.798Z" fill="#663921"/>
<path d="M491.631 199.321H489.53V202.491H491.631V199.321Z" fill="#663921"/>
<path d="M494.082 199.321H491.981V202.491H494.082V199.321Z" fill="#663921"/>
<path d="M496.533 199.321H494.432V202.491H496.533V199.321Z" fill="#663921"/>
<path d="M491.631 202.843H489.53V206.013H491.631V202.843Z" fill="#663921"/>
<path d="M494.082 202.843H491.981V206.013H494.082V202.843Z" fill="#663921"/>
<path d="M496.533 202.843H494.432V206.013H496.533V202.843Z" fill="#663921"/>
<path d="M503.886 195.798H501.785V198.968H503.886V195.798Z" fill="#663921"/>
<path d="M506.338 195.798H504.237V198.968H506.338V195.798Z" fill="#663921"/>
<path d="M508.789 195.798H506.688V198.968H508.789V195.798Z" fill="#663921"/>
<path d="M503.886 199.321H501.785V202.491H503.886V199.321Z" fill="#663921"/>
<path d="M506.338 199.321H504.237V202.491H506.338V199.321Z" fill="#663921"/>
<path d="M508.789 199.321H506.688V202.491H508.789V199.321Z" fill="#663921"/>
<path d="M503.886 202.843H501.785V206.013H503.886V202.843Z" fill="#663921"/>
<path d="M506.338 202.843H504.237V206.013H506.338V202.843Z" fill="#663921"/>
<path d="M508.789 202.843H506.688V206.013H508.789V202.843Z" fill="#663921"/>
<path d="M516.142 195.798H514.041V198.968H516.142V195.798Z" fill="#663921"/>
<path d="M518.593 195.798H516.492V198.968H518.593V195.798Z" fill="#663921"/>
<path d="M521.044 195.798H518.943V198.968H521.044V195.798Z" fill="#663921"/>
<path d="M516.142 199.321H514.041V202.491H516.142V199.321Z" fill="#663921"/>
<path d="M518.593 199.321H516.492V202.491H518.593V199.321Z" fill="#663921"/>
<path d="M521.044 199.321H518.943V202.491H521.044V199.321Z" fill="#663921"/>
<path d="M516.142 202.843H514.041V206.013H516.142V202.843Z" fill="#663921"/>
<path d="M518.593 202.843H516.492V206.013H518.593V202.843Z" fill="#663921"/>
<path d="M521.044 202.843H518.943V206.013H521.044V202.843Z" fill="#663921"/>
<path d="M546.956 195.798H544.855V198.968H546.956V195.798Z" fill="#663921"/>
<path d="M549.407 195.798H547.306V198.968H549.407V195.798Z" fill="#663921"/>
<path d="M551.858 195.798H549.757V198.968H551.858V195.798Z" fill="#663921"/>
<path d="M546.956 199.321H544.855V202.491H546.956V199.321Z" fill="#663921"/>
<path d="M549.407 199.321H547.306V202.491H549.407V199.321Z" fill="#663921"/>
<path d="M551.858 199.321H549.757V202.491H551.858V199.321Z" fill="#663921"/>
<path d="M546.956 202.843H544.855V206.013H546.956V202.843Z" fill="#663921"/>
<path d="M549.407 202.843H547.306V206.013H549.407V202.843Z" fill="#663921"/>
<path d="M551.858 202.843H549.757V206.013H551.858V202.843Z" fill="#663921"/>
<path d="M559.211 195.798H557.11V198.968H559.211V195.798Z" fill="#663921"/>
<path d="M561.662 195.798H559.562V198.968H561.662V195.798Z" fill="#663921"/>
<path d="M564.114 195.798H562.013V198.968H564.114V195.798Z" fill="#663921"/>
<path d="M559.211 199.321H557.11V202.491H559.211V199.321Z" fill="#663921"/>
<path d="M561.662 199.321H559.562V202.491H561.662V199.321Z" fill="#663921"/>
<path d="M564.114 199.321H562.013V202.491H564.114V199.321Z" fill="#663921"/>
<path d="M559.211 202.843H557.11V206.013H559.211V202.843Z" fill="#663921"/>
<path d="M561.662 202.843H559.562V206.013H561.662V202.843Z" fill="#663921"/>
<path d="M564.114 202.843H562.013V206.013H564.114V202.843Z" fill="#663921"/>
<path d="M571.467 195.798H569.366V198.968H571.467V195.798Z" fill="#663921"/>
<path d="M573.918 195.798H571.817V198.968H573.918V195.798Z" fill="#663921"/>
<path d="M576.369 195.798H574.268V198.968H576.369V195.798Z" fill="#663921"/>
<path d="M571.467 199.321H569.366V202.491H571.467V199.321Z" fill="#663921"/>
<path d="M573.918 199.321H571.817V202.491H573.918V199.321Z" fill="#663921"/>
<path d="M576.369 199.321H574.268V202.491H576.369V199.321Z" fill="#663921"/>
<path d="M571.467 202.843H569.366V206.013H571.467V202.843Z" fill="#663921"/>
<path d="M573.918 202.843H571.817V206.013H573.918V202.843Z" fill="#663921"/>
<path d="M576.369 202.843H574.268V206.013H576.369V202.843Z" fill="#663921"/>
<path d="M583.722 195.798H581.621V198.968H583.722V195.798Z" fill="#663921"/>
<path d="M586.174 195.798H584.073V198.968H586.174V195.798Z" fill="#663921"/>
<path d="M588.625 195.798H586.524V198.968H588.625V195.798Z" fill="#663921"/>
<path d="M583.722 199.321H581.621V202.491H583.722V199.321Z" fill="#663921"/>
<path d="M586.174 199.321H584.073V202.491H586.174V199.321Z" fill="#663921"/>
<path d="M588.625 199.321H586.524V202.491H588.625V199.321Z" fill="#663921"/>
<path d="M583.722 202.843H581.621V206.013H583.722V202.843Z" fill="#663921"/>
<path d="M586.174 202.843H584.073V206.013H586.174V202.843Z" fill="#663921"/>
<path d="M588.625 202.843H586.524V206.013H588.625V202.843Z" fill="#663921"/>
<path d="M595.978 195.798H593.877V198.968H595.978V195.798Z" fill="#663921"/>
<path d="M598.429 195.798H596.328V198.968H598.429V195.798Z" fill="#663921"/>
<path d="M600.88 195.798H598.779V198.968H600.88V195.798Z" fill="#663921"/>
<path d="M595.978 199.321H593.877V202.491H595.978V199.321Z" fill="#663921"/>
<path d="M598.429 199.321H596.328V202.491H598.429V199.321Z" fill="#663921"/>
<path d="M600.88 199.321H598.779V202.491H600.88V199.321Z" fill="#663921"/>
<path d="M595.978 202.843H593.877V206.013H595.978V202.843Z" fill="#663921"/>
<path d="M598.429 202.843H596.328V206.013H598.429V202.843Z" fill="#663921"/>
<path d="M600.88 202.843H598.779V206.013H600.88V202.843Z" fill="#663921"/>
<path d="M608.233 195.798H606.132V198.968H608.233V195.798Z" fill="#663921"/>
<path d="M610.685 195.798H608.584V198.968H610.685V195.798Z" fill="#663921"/>
<path d="M613.136 195.798H611.035V198.968H613.136V195.798Z" fill="#663921"/>
<path d="M608.233 199.321H606.132V202.491H608.233V199.321Z" fill="#663921"/>
<path d="M610.685 199.321H608.584V202.491H610.685V199.321Z" fill="#663921"/>
<path d="M613.136 199.321H611.035V202.491H613.136V199.321Z" fill="#663921"/>
<path d="M608.233 202.843H606.132V206.013H608.233V202.843Z" fill="#663921"/>
<path d="M610.685 202.843H608.584V206.013H610.685V202.843Z" fill="#663921"/>
<path d="M613.136 202.843H611.035V206.013H613.136V202.843Z" fill="#663921"/>
<path d="M473.073 103.86H462.568V114.427H473.073V103.86Z" fill="#EABB60"/>
<path d="M467.82 114.075C470.528 114.075 472.722 111.867 472.722 109.144C472.722 106.42 470.528 104.212 467.82 104.212C465.113 104.212 462.918 106.42 462.918 109.144C462.918 111.867 465.113 114.075 467.82 114.075Z" fill="#EABB60" stroke="#352201"/>
<path d="M467.82 113.723C470.334 113.723 472.372 111.673 472.372 109.144C472.372 106.614 470.334 104.564 467.82 104.564C465.306 104.564 463.268 106.614 463.268 109.144C463.268 111.673 465.306 113.723 467.82 113.723Z" fill="#A39B86" stroke="#EABB60"/>
<path d="M467.82 112.666C469.754 112.666 471.322 111.089 471.322 109.144C471.322 107.198 469.754 105.621 467.82 105.621C465.886 105.621 464.319 107.198 464.319 109.144C464.319 111.089 465.886 112.666 467.82 112.666Z" fill="#A39B86" stroke="#EABB60"/>
<path d="M467.34 104.632L467.778 105.657L468.19 104.632L467.778 105.144L467.34 104.632Z" stroke="#EABB60"/>
<path d="M472.294 108.474L471.274 108.915L472.294 109.329L471.784 108.915L472.294 108.474Z" stroke="#EABB60"/>
<path d="M468.223 113.735L467.785 112.709L467.373 113.735L467.785 113.222L468.223 113.735Z" stroke="#EABB60"/>
<path d="M463.331 109.363L464.35 108.923L463.331 108.508L463.841 108.923L463.331 109.363Z" stroke="#EABB60"/>
<g filter="url(#filter0_d_1_2)">
<path d="M469.494 105.269L469.376 105.751L469.795 105.498L469.513 105.569L469.494 105.269Z" stroke="#EABB60"/>
<path d="M471.305 106.894L470.977 107.264L471.465 107.238L471.182 107.167L471.305 106.894Z" stroke="#EABB60"/>
</g>
<g filter="url(#filter1_d_1_2)">
<path d="M471.58 110.776L471.097 110.675L471.363 111.088L471.282 110.806L471.58 110.776Z" stroke="#EABB60"/>
<path d="M470.029 112.654L469.65 112.337L469.692 112.827L469.753 112.54L470.029 112.654Z" stroke="#EABB60"/>
</g>
<g filter="url(#filter2_d_1_2)">
<path d="M466.047 112.901L466.172 112.421L465.749 112.666L466.033 112.6L466.047 112.901Z" stroke="#EABB60"/>
<path d="M464.264 111.244L464.599 110.88L464.11 110.897L464.392 110.973L464.264 111.244Z" stroke="#EABB60"/>
</g>
<g filter="url(#filter3_d_1_2)">
<path d="M464.157 107.157L464.627 107.309L464.405 106.87L464.456 107.159L464.157 107.157Z" stroke="#EABB60"/>
<path d="M465.895 105.452L466.239 105.808L466.248 105.316L466.158 105.595L465.895 105.452Z" stroke="#EABB60"/>
</g>
<path d="M467.996 108.087L468.871 109.496H467.12L467.996 108.087Z" fill="#DBA438"/>
<path d="M467.983 109.848L467.132 108.424L468.883 108.455L467.983 109.848Z" fill="#DBA438"/>
<path d="M467.82 108.774L471.138 108.908L470.788 108.439L472.022 109.03L470.788 109.533L471.138 109.079L467.82 109.17V108.774Z" fill="#DBA438"/>
<path d="M468.108 108.808L469.703 111.737L469.922 111.195L470.054 112.563L468.99 111.758L469.557 111.826L467.771 109.011L468.108 108.808Z" fill="#DBA438"/>
<path d="M468.17 36.9316V38.2002H469.571V36.9316L469.375 37.3658L469.177 36.9316L469.005 37.3658L468.812 36.9316L468.622 37.3658L468.454 36.9316L468.322 37.3658L468.17 36.9316Z" fill="#E8B95F"/>
<path d="M442.434 184.174L436.964 189.491H435.255V192.101H449.612V189.491H447.751L442.434 184.174Z" fill="#94B07C"/>
<path d="M624.516 184.174L619.046 189.491H617.338V192.101H631.694V189.491H629.833L624.516 184.174Z" fill="#94B07C"/>
<path d="M532.438 182.06L528.826 185.653H527.697V187.416H537.178V185.653H535.949L532.438 182.06Z" fill="#94B07C"/>
<path d="M536.451 188.048H528.397V201.434H536.451V188.048Z" fill="#E7B85E"/>
<path d="M532.409 188.902C531.84 188.991 531.438 189.161 531.201 189.411C530.964 189.661 530.845 190.098 530.843 190.72H529.966V200.156H534.976V190.72H534.18C534.192 190.114 534.056 189.678 533.77 189.411C533.485 189.144 533.031 188.974 532.409 188.902Z" fill="#DBA438" stroke="#301E00"/>
<path d="M532.461 190.111C532.263 190.111 532.143 190.49 532.074 190.74C532.028 190.907 532.028 191.166 532.074 191.518C531.405 192.1 530.999 192.528 530.853 192.802C530.708 193.077 530.708 193.508 530.853 194.097L531.244 194.593V198.619H533.673V194.593L534.023 194.097C534.174 193.556 534.174 193.124 534.023 192.802C533.871 192.481 533.499 192.052 532.907 191.518C532.959 191.163 532.959 190.904 532.907 190.74C532.829 190.495 532.658 190.111 532.461 190.111Z" fill="#E8B95F"/>
<path d="M527.084 224.72V239.073H539.475V224.72C538.209 221.251 536.144 219.516 533.28 219.516C530.416 219.516 528.351 221.251 527.084 224.72Z" fill="#663921"/>
<path d="M461.816 160.033L457.834 156.318H454.687L424.304 173.269L423.728 171.703V174.011H644.299V171.703L643.639 173.269L608.453 156.318H605.505L601.302 160.033H461.816Z" fill="#333333"/>
<path d="M528.6 159.292H536.413V156.479C537.291 156.262 537.729 155.683 537.729 154.741C537.729 153.799 537.291 153.328 536.413 153.328C536.18 152.135 535.856 151.275 535.442 150.748C535.029 150.221 534.448 149.834 533.701 149.588C533.634 148.287 533.154 147.637 532.263 147.637C531.372 147.637 530.875 148.287 530.772 149.588C529.973 150.004 529.398 150.5 529.048 151.075C528.699 151.65 528.549 152.401 528.6 153.328C527.655 153.328 527.183 153.789 527.183 154.711C527.183 155.633 527.655 156.222 528.6 156.479V159.292Z" fill="#E7B85E"/>
<path d="M529.171 158.706H535.715V156.022C536.653 155.852 537.122 155.435 537.122 154.77C537.122 154.104 536.7 153.814 535.856 153.898C535.724 152.695 535.472 151.858 535.101 151.385C534.73 150.913 534.102 150.453 533.215 150.006C533.303 148.91 532.976 148.362 532.234 148.362C531.492 148.362 531.16 148.91 531.239 150.006C530.444 150.41 529.89 150.87 529.576 151.385C529.263 151.901 529.128 152.738 529.171 153.898C528.26 153.898 527.805 154.189 527.805 154.77C527.805 155.351 528.26 155.768 529.171 156.022V158.706Z" fill="#DBA438" stroke="#301E00"/>
<path d="M530.849 153.88H529.798V157.05H530.849V153.88Z" fill="#94B07C"/>
<path d="M535.05 153.88H534V157.05H535.05V153.88Z" fill="#94B07C"/>
<path d="M533.3 153.175H531.549V157.05H533.3V153.175Z" fill="#94B07C"/>
<path d="M532.424 150.71L533.3 152.823H531.549L532.424 150.71Z" fill="#94B07C"/>
<path d="M530.323 152.119L530.849 153.528H529.798L530.323 152.119Z" fill="#94B07C"/>
<path d="M534.525 152.119L535.05 153.528H534L534.525 152.119Z" fill="#94B07C"/>
</g>
<circle class="floater" cx="584.5" cy="104.5" r="3.5" fill="#8E5538" fill-opacity="0.4"/>
<circle class="floater" cx="630" cy="30" r="2" fill="#8E5538" fill-opacity="0.5"/>
<circle class="floater" cx="381" cy="218" r="2" fill="#8E5538" fill-opacity="0.5"/>
<circle class="floater" cx="20" cy="38" r="2" fill="#8E5538" fill-opacity="0.5"/>
<rect x="1.5" y="1.5" width="657" height="257" stroke="#8E5538" stroke-width="3"/>
<circle class="floater" cx="44" cy="193" r="14" fill="#D9B29D" fill-opacity="0.7"/>
<circle class="floater" cx="160.5" cy="122.5" r="3.5" fill="#D9B29D" fill-opacity="0.7"/>
<circle class="floater" cx="438.5" cy="37.5" r="3.5" fill="#D9B29D" fill-opacity="0.7"/>
<circle class="floater" cx="331" cy="69" r="7" fill="#D9B29D" fill-opacity="0.7"/>
<circle class="floater" cx="114" cy="76" r="6" fill="#8E5538" fill-opacity="0.6"/>
<circle class="floater" cx="254" cy="171" r="6" fill="#8E5538" fill-opacity="0.6"/>
</g>
<defs>
<filter id="filter0_d_1_2" x="464.607" y="103.011" width="11.1527" height="10.8154" filterUnits="userSpaceOnUse" color-interpolation-filters="sRGB">
<feFlood flood-opacity="0" result="BackgroundImageFix"/>
<feColorMatrix in="SourceAlpha" type="matrix" values="0 0 0 0 0 0 0 0 0 0 0 0 0 0 0 0 0 0 127 0" result="hardAlpha"/>
<feOffset dy="2"/>
<feGaussianBlur stdDeviation="2"/>
<feColorMatrix type="matrix" values="0 0 0 0 0 0 0 0 0 0 0 0 0 0 0 0 0 0 0.5 0"/>
<feBlend mode="normal" in2="BackgroundImageFix" result="effect1_dropShadow_1_2"/>
<feBlend mode="normal" in="SourceGraphic" in2="effect1_dropShadow_1_2" result="shape"/>
</filter>
<filter id="filter1_d_1_2" x="465.048" y="107.94" width="10.7938" height="11.1777" filterUnits="userSpaceOnUse" color-interpolation-filters="sRGB">
<feFlood flood-opacity="0" result="BackgroundImageFix"/>
<feColorMatrix in="SourceAlpha" type="matrix" values="0 0 0 0 0 0 0 0 0 0 0 0 0 0 0 0 0 0 127 0" result="hardAlpha"/>
<feOffset dy="2"/>
<feGaussianBlur stdDeviation="2"/>
<feColorMatrix type="matrix" values="0 0 0 0 0 0 0 0 0 0 0 0 0 0 0 0 0 0 0.5 0"/>
<feBlend mode="normal" in2="BackgroundImageFix" result="effect1_dropShadow_1_2"/>
<feBlend mode="normal" in="SourceGraphic" in2="effect1_dropShadow_1_2" result="shape"/>
</filter>
<filter id="filter2_d_1_2" x="459.812" y="108.338" width="11.1469" height="10.8172" filterUnits="userSpaceOnUse" color-interpolation-filters="sRGB">
<feFlood flood-opacity="0" result="BackgroundImageFix"/>
<feColorMatrix in="SourceAlpha" type="matrix" values="0 0 0 0 0 0 0 0 0 0 0 0 0 0 0 0 0 0 127 0" result="hardAlpha"/>
<feOffset dy="2"/>
<feGaussianBlur stdDeviation="2"/>
<feColorMatrix type="matrix" values="0 0 0 0 0 0 0 0 0 0 0 0 0 0 0 0 0 0 0.5 0"/>
<feBlend mode="normal" in2="BackgroundImageFix" result="effect1_dropShadow_1_2"/>
<feBlend mode="normal" in="SourceGraphic" in2="effect1_dropShadow_1_2" result="shape"/>
</filter>
<filter id="filter3_d_1_2" x="459.914" y="103.012" width="10.8325" height="11.1412" filterUnits="userSpaceOnUse" color-interpolation-filters="sRGB">
<feFlood flood-opacity="0" result="BackgroundImageFix"/>
<feColorMatrix in="SourceAlpha" type="matrix" values="0 0 0 0 0 0 0 0 0 0 0 0 0 0 0 0 0 0 127 0" result="hardAlpha"/>
<feOffset dy="2"/>
<feGaussianBlur stdDeviation="2"/>
<feColorMatrix type="matrix" values="0 0 0 0 0 0 0 0 0 0 0 0 0 0 0 0 0 0 0.5 0"/>
<feBlend mode="normal" in2="BackgroundImageFix" result="effect1_dropShadow_1_2"/>
<feBlend mode="normal" in="SourceGraphic" in2="effect1_dropShadow_1_2" result="shape"/>
</filter>
<clipPath id="clip0_1_2">
<rect width="660" height="260" fill="white"/>
</clipPath>
<clipPath id="clip1_1_2">
<rect width="222" height="211" fill="white" transform="translate(423 32)"/>
</clipPath>
</defs>
</svg>
